<svg xmlns="http://www.w3.org/2000/svg" xmlns:xlink="http://www.w3.org/1999/xlink" width="500" zoomAndPan="magnify" viewBox="0 0 375 374.999991" height="500" preserveAspectRatio="xMidYMid meet" version="1.0"><defs><clipPath id="dccb79778f"><path d="M 37.5 37.5 L 348 37.5 L 348 348 L 37.5 348 Z M 37.5 37.5 " clip-rule="nonzero"/></clipPath><clipPath id="f45c33bd12"><path d="M 78.832031 81.515625 L 159.078125 81.515625 L 159.078125 156.515625 L 78.832031 156.515625 Z M 78.832031 81.515625 " clip-rule="nonzero"/></clipPath><clipPath id="77f2302639"><path d="M 96.078125 81.515625 L 141.816406 81.515625 C 146.390625 81.515625 150.777344 83.335938 154.015625 86.570312 C 157.25 89.804688 159.066406 94.191406 159.066406 98.765625 L 159.066406 139.128906 C 159.066406 143.703125 157.25 148.089844 154.015625 151.324219 C 150.777344 154.558594 146.390625 156.375 141.816406 156.375 L 96.078125 156.375 C 91.503906 156.375 87.117188 154.558594 83.882812 151.324219 C 80.648438 148.089844 78.832031 143.703125 78.832031 139.128906 L 78.832031 98.765625 C 78.832031 94.191406 80.648438 89.804688 83.882812 86.570312 C 87.117188 83.335938 91.503906 81.515625 96.078125 81.515625 Z M 96.078125 81.515625 " clip-rule="nonzero"/></clipPath><clipPath id="7806c350b3"><path d="M 78.832031 187.5 L 159.078125 187.5 L 159.078125 262.5 L 78.832031 262.5 Z M 78.832031 187.5 " clip-rule="nonzero"/></clipPath><clipPath id="81cc6c3f4d"><path d="M 96.078125 187.5 L 141.816406 187.5 C 146.390625 187.5 150.777344 189.316406 154.015625 192.550781 C 157.25 195.785156 159.066406 200.175781 159.066406 204.75 L 159.066406 245.109375 C 159.066406 249.683594 157.25 254.074219 154.015625 257.308594 C 150.777344 260.542969 146.390625 262.359375 141.816406 262.359375 L 96.078125 262.359375 C 91.503906 262.359375 87.117188 260.542969 83.882812 257.308594 C 80.648438 254.074219 78.832031 249.683594 78.832031 245.109375 L 78.832031 204.75 C 78.832031 200.175781 80.648438 195.785156 83.882812 192.550781 C 87.117188 189.316406 91.503906 187.5 96.078125 187.5 Z M 96.078125 187.5 " clip-rule="nonzero"/></clipPath><clipPath id="1e477e5ddd"><path d="M 79 71 L 178 71 L 178 147.859375 L 79 147.859375 Z M 79 71 " clip-rule="nonzero"/></clipPath></defs><g clip-path="url(#dccb79778f)"><path fill="#fee469" d="M 37.5 37.5 L 37.5 348 L 288.613281 348 L 348 288.613281 L 348 37.5 Z M 37.5 37.5 " fill-opacity="1" fill-rule="nonzero"/></g><path fill="#fed420" d="M 288.625 288.625 L 348 288.625 L 288.625 348 Z M 288.625 288.625 " fill-opacity="1" fill-rule="nonzero"/><g clip-path="url(#f45c33bd12)"><g clip-path="url(#77f2302639)"><path stroke-linecap="butt" transform="matrix(0.75, 0, 0, 0.75, 78.830419, 81.517291)" fill="none" stroke-linejoin="miter" d="M 22.996943 -0.00222086 L 83.981322 -0.00222086 C 90.080281 -0.00222086 95.92924 2.424863 100.246949 6.737363 C 104.559449 11.049863 106.981324 16.898822 106.981324 22.997781 L 106.981324 76.815493 C 106.981324 82.914451 104.559449 88.76341 100.246949 93.07591 C 95.92924 97.388411 90.080281 99.810286 83.981322 99.810286 L 22.996943 99.810286 C 16.897985 99.810286 11.049026 97.388411 6.736526 93.07591 C 2.424025 88.76341 0.0021503 82.914451 0.0021503 76.815493 L 0.0021503 22.997781 C 0.0021503 16.898822 2.424025 11.049863 6.736526 6.737363 C 11.049026 2.424863 16.897985 -0.00222086 22.996943 -0.00222086 Z M 22.996943 -0.00222086 " stroke="#e9a800" stroke-width="28" stroke-opacity="1" stroke-miterlimit="4"/></g></g><g clip-path="url(#7806c350b3)"><g clip-path="url(#81cc6c3f4d)"><path stroke-linecap="butt" transform="matrix(0.75, 0, 0, 0.75, 78.830419, 187.499988)" fill="none" stroke-linejoin="miter" d="M 22.996943 0.0000164167 L 83.981322 0.0000164167 C 90.080281 0.0000164167 95.92924 2.421892 100.246949 6.734392 C 104.559449 11.046892 106.981324 16.901059 106.981324 23.000018 L 106.981324 76.812521 C 106.981324 82.91148 104.559449 88.765647 100.246949 93.078148 C 95.92924 97.390648 90.080281 99.812523 83.981322 99.812523 L 22.996943 99.812523 C 16.897985 99.812523 11.049026 97.390648 6.736526 93.078148 C 2.424025 88.765647 0.0021503 82.91148 0.0021503 76.812521 L 0.0021503 23.000018 C 0.0021503 16.901059 2.424025 11.046892 6.736526 6.734392 C 11.049026 2.421892 16.897985 0.0000164167 22.996943 0.0000164167 Z M 22.996943 0.0000164167 " stroke="#e9a800" stroke-width="28" stroke-opacity="1" stroke-miterlimit="4"/></g></g><path stroke-linecap="round" transform="matrix(0.75, 0, 0, 0.75, 187.499992, 219.682207)" fill="none" stroke-linejoin="miter" d="M 7.000011 7.001849 L 153.00002 7.001849 " stroke="#e9a800" stroke-width="14" stroke-opacity="1" stroke-miterlimit="4"/><path stroke-linecap="round" transform="matrix(0.75, 0, 0, 0.75, 187.499992, 118.949503)" fill="none" stroke-linejoin="miter" d="M 7.000011 6.999622 L 153.00002 6.999622 " stroke="#e9a800" stroke-width="14" stroke-opacity="1" stroke-miterlimit="4"/><g clip-path="url(#1e477e5ddd)"><path fill="#7ed957" d="M 175.550781 73.75 C 172.410156 70.609375 167.320312 70.609375 164.179688 73.75 L 113.167969 124.761719 L 93.347656 104.941406 C 90.207031 101.800781 85.113281 101.800781 81.972656 104.941406 C 78.832031 108.082031 78.832031 113.175781 81.972656 116.316406 L 107.480469 141.824219 L 113.167969 147.507812 L 175.550781 85.125 C 178.691406 81.984375 178.691406 76.890625 175.550781 73.75 " fill-opacity="1" fill-rule="nonzero"/></g></svg>