<?xml version="1.0" encoding="UTF-8"?>
<svg id="Layer_1" data-name="Layer 1" xmlns="http://www.w3.org/2000/svg" viewBox="0 0 484.72 650.48">
  <defs>
    <style>
      .cls-1 {
        fill: #444545;
      }

      .cls-1, .cls-2, .cls-3 {
        stroke-width: 0px;
      }

      .cls-2 {
        fill: #d1c8e3;
      }

      .cls-3 {
        fill: #fff;
      }
    </style>
  </defs>
  <rect class="cls-1" y="8.81" width="484.72" height="641.67"/>
  <rect class="cls-3" x="12.99" y="20.18" width="456.48" height="618.22"/>
  <rect class="cls-1" x="224.27" y="34.58" width="30.36" height="38.88"/>
  <rect class="cls-1" x="283.56" y="34.58" width="30.36" height="38.88"/>
  <rect class="cls-1" x="165.78" y="34.58" width="30.36" height="38.88"/>
  <rect class="cls-1" x="106.81" y="34.58" width="30.36" height="38.88"/>
  <rect class="cls-1" x="51.12" y="34.58" width="30.36" height="38.88"/>
  <rect class="cls-1" x="400.98" y="34.58" width="30.36" height="38.88"/>
  <rect class="cls-1" x="342.49" y="34.58" width="30.36" height="38.88"/>
  <path class="cls-2" d="M425.75,53.3V3.62c0-4.83-7.5-4.83-7.5,0v49.68c0,4.83,7.5,4.83,7.5,0h0Z"/>
  <path class="cls-2" d="M412.07,53.3V3.62c0-4.83-7.5-4.83-7.5,0v49.68c0,4.83,7.5,4.83,7.5,0h0Z"/>
  <path class="cls-2" d="M367.26,53.3V3.62c0-4.83-7.5-4.83-7.5,0v49.68c0,4.83,7.5,4.83,7.5,0h0Z"/>
  <path class="cls-2" d="M353.58,53.3V3.62c0-4.83-7.5-4.83-7.5,0v49.68c0,4.83,7.5,4.83,7.5,0h0Z"/>
  <path class="cls-2" d="M308.33,53.3V3.62c0-4.83-7.5-4.83-7.5,0v49.68c0,4.83,7.5,4.83,7.5,0h0Z"/>
  <path class="cls-2" d="M294.65,53.3V3.62c0-4.83-7.5-4.83-7.5,0v49.68c0,4.83,7.5,4.83,7.5,0h0Z"/>
  <path class="cls-2" d="M249.03,53.3V3.62c0-4.83-7.5-4.83-7.5,0v49.68c0,4.83,7.5,4.83,7.5,0h0Z"/>
  <path class="cls-2" d="M235.35,53.3V3.62c0-4.83-7.5-4.83-7.5,0v49.68c0,4.83,7.5,4.83,7.5,0h0Z"/>
  <path class="cls-2" d="M190.54,53.3V3.62c0-4.83-7.5-4.83-7.5,0v49.68c0,4.83,7.5,4.83,7.5,0h0Z"/>
  <path class="cls-2" d="M176.86,53.3V3.62c0-4.83-7.5-4.83-7.5,0v49.68c0,4.83,7.5,4.83,7.5,0h0Z"/>
  <path class="cls-2" d="M131.57,53.3V3.62c0-4.83-7.5-4.83-7.5,0v49.68c0,4.83,7.5,4.83,7.5,0h0Z"/>
  <path class="cls-2" d="M117.89,53.3V3.62c0-4.83-7.5-4.83-7.5,0v49.68c0,4.83,7.5,4.83,7.5,0h0Z"/>
  <path class="cls-2" d="M75.89,53.3V3.62c0-4.83-7.5-4.83-7.5,0v49.68c0,4.83,7.5,4.83,7.5,0h0Z"/>
  <path class="cls-2" d="M62.21,53.3V3.62c0-4.83-7.5-4.83-7.5,0v49.68c0,4.83,7.5,4.83,7.5,0h0Z"/>
  <path class="cls-2" d="M422,49.55H74.76c-4.66,0-9.48-.36-14.13,0-.2.02-.41,0-.61,0-4.83,0-4.83,7.5,0,7.5h347.24c4.66,0,9.48.36,14.13,0,.2-.02.41,0,.61,0,4.83,0,4.83-7.5,0-7.5h0Z"/>
  <rect class="cls-3" x="372.85" y="34.58" width="28.13" height="66.96"/>
  <rect class="cls-3" x="314.14" y="27.38" width="28.13" height="66.96"/>
  <rect class="cls-3" x="254.7" y="33.5" width="28.13" height="66.96"/>
  <rect class="cls-3" x="196.14" y="23.42" width="28.13" height="66.96"/>
  <rect class="cls-3" x="137.08" y="23.42" width="28.13" height="66.96"/>
  <rect class="cls-3" x="79.75" y="27.38" width="28.13" height="66.96"/>
</svg>